<svg xmlns="http://www.w3.org/2000/svg" xmlns:xlink="http://www.w3.org/1999/xlink" width="40" height="40" viewBox="0 0 40 40">
    <defs>
        <path id="a" d="M0 0h19v38H0z"/>
    </defs>
    <g fill="none" fill-rule="evenodd">
        <path d="M0 0h40v40H0z"/>
        <path fill="#989FA5" fill-rule="nonzero" d="M20 1C9.507 1 1 9.507 1 20s8.507 19 19 19a19 19 0 0 0 19-19C39 9.507 30.493 1 20 1zm0 4.207l3.562 9.812 10.432.355-8.231 6.42 2.886 10.03L20 25.98l-8.649 5.845 2.886-10.032-8.23-6.42 10.431-.354L20 5.207z"/>
        <g transform="translate(1 1)">
            <mask id="b" fill="#fff">
                <use xlink:href="#a"/>
            </mask>
            <path fill="#F48D33" fill-rule="nonzero" d="M19 0C8.507 0 0 8.507 0 19s8.507 19 19 19a19 19 0 0 0 19-19C38 8.507 29.493 0 19 0zm0 4.207l3.562 9.812 10.432.355-8.231 6.42 2.886 10.03L19 24.98l-8.649 5.845 2.886-10.032-8.23-6.42 10.431-.354L19 4.207z" mask="url(#b)"/>
        </g>
    </g>
</svg>
