<svg xmlns="http://www.w3.org/2000/svg" width="30" height="30" viewBox="0 0 30 30">
    <g fill="none" fill-rule="evenodd">
        <circle cx="15" cy="15" r="15" fill="#989FA5"/>
        <path fill="#FFF" fill-rule="nonzero" d="M18.494 9.225L15 12.72l-3.494-3.494c-.3-.3-.786-.3-1.086 0L9.225 10.42c-.3.3-.3.786 0 1.086L12.719 15l-3.494 3.494c-.3.3-.3.786 0 1.086l1.195 1.194c.3.3.786.3 1.086 0L15 17.282l3.494 3.494c.3.3.786.3 1.086 0l1.195-1.195c.3-.3.3-.786 0-1.086L17.281 15l3.494-3.494c.3-.3.3-.786 0-1.086L19.58 9.225c-.3-.3-.786-.3-1.086 0z"/>
    </g>
</svg>
