<svg xmlns="http://www.w3.org/2000/svg" width="30" height="30" viewBox="0 0 30 30">
    <g fill="none" fill-rule="evenodd">
        <path d="M0 .199h30V30H0z"/>
        <path fill="#FFF" d="M4.005 24.098c.212-3.233 2.101-8.311 2.101-8.311.463-.995 1.318-1.846 2.386-2.415l2.29-.949C8.978 8.767 8.517 1.457 14.668.163c3.818-.804 6.708 1.426 7.295 5.474.587 4.047 2.385 4.969 2.385 4.969s-.263 1.34-1.465 2.613l1.998.784c.805.314 1.565 1.274 1.685 2.127 0 0 .949 8.395-.974 10.667-1.37 1.62-4.343 1.516-9.43 2.286-.318.447-1.19.813-1.757.696-5.567-1.14-10.59-2.838-10.4-5.681zm14.428-14.41c-.345-2.944-4.135-2.014-5.428-4.773-1.443.44-2.069 1.154-2.253 3.415.031.213.073.434.13.664.876 3.486 2.835 4.78 3.656 4.78 1.892 0 3.733-1.618 3.895-4.086zM7.631 17.186c-1.692 1.582-2.154 5.375 1.721 5.85.25.03.543.374.847.826l2.588 1.373s8.345-1.762 8.576-1.827c.232-.065.26-.465.198-.525-.461-.46-1.647-.888-2.548-1.132-.502-.135-1.006-.119-1.437.097l-.586-3.037c-.116-.67-.567-1.067-1.177-1.028a1.106 1.106 0 0 0-1.031 1.176l.125 1.872c-.54-.299-1.206-.547-1.673-.335 0-.013.005-.025.007-.038a1.677 1.677 0 0 0-.256-2.152 1.687 1.687 0 0 0-.78-.402c-.278-.42-.547-.796-.724-1.072-.636-.995-2.16-1.23-3.85.354z"/>
    </g>
</svg>
