<svg xmlns="http://www.w3.org/2000/svg" width="30" height="30" viewBox="0 0 30 30">
    <g fill="none" fill-rule="evenodd">
        <path d="M0 0h30v30H0z"/>
        <g fill="#FFF">
            <path d="M29.994 23.693c0 .693-.618 1.299-1.307 1.299H1.332c-.707 0-1.32-.606-1.32-1.299L.025 6.248c0-.683.6-1.209 1.306-1.209h27.355c.69 0 1.307.526 1.307 1.209v17.445zM27.815 9.105c-1.476 0-2.706-1.22-2.706-2.6 0-.171 0-.346.097-.423H4.82v.424c0 1.38-1.147 2.6-2.625 2.6-.176 0-.43 0-.612-.094v11.926h.612c1.478 0 2.625 1.12 2.625 2.588v.427h20.385c-.097-.17-.097-.259-.097-.427 0-1.466 1.23-2.588 2.706-2.588h.606V9.012c-.254.093-.434.093-.606.093z"/>
            <path d="M22.404 14.978a7.37 7.37 0 0 1-7.398 7.42c-4.096 0-7.499-3.271-7.499-7.42 0-4.056 3.403-7.349 7.499-7.349 4.097 0 7.398 3.293 7.398 7.35zm-8.095 5.093h1.216v-1.299c1.488-.256 2.278-1.203 2.278-2.244 0-1.125-.614-1.819-2.103-2.334-1.041-.432-1.477-.684-1.477-1.023 0-.357.265-.702 1.039-.693.879 0 1.493.249 1.832.336l.354-1.38c-.435-.18-.95-.359-1.826-.359v-1.1h-1.234v1.2c-1.3.259-2.085 1.027-2.085 2.152 0 1.224.873 1.817 2.26 2.253.88.347 1.316.6 1.316 1.117 0 .442-.518.698-1.22.698-.785 0-1.571-.267-2.086-.516l-.357 1.472c.435.242 1.32.516 2.093.516v1.204z"/>
        </g>
    </g>
</svg>
