<svg xmlns="http://www.w3.org/2000/svg" xmlns:xlink="http://www.w3.org/1999/xlink" width="30" height="30" viewBox="0 0 30 30">
    <defs>
        <path id="a" d="M28.123 2.095c.154 0 .275.12.306.241V4.52c0 .12-.092.243-.246.243H.99a.24.24 0 0 1-.244-.243V2.336c0-.12.09-.241.244-.241H2.39V.396c0-.121.09-.242.243-.242H26.48a.24.24 0 0 1 .244.242v1.699h1.4z"/>
        <path id="c" d="M14.541 4.475c-.732 0-1.31.577-1.31 1.304 0 .726.578 1.303 1.31 1.303.732 0 1.31-.577 1.31-1.303 0-.727-.578-1.304-1.31-1.304zm-13.34 5.76c-.274 0-.517-.213-.488-.516v-.88c0-.272.153-.484.366-.606L14.113.716a.86.86 0 0 1 .855 0l13.064 7.517a.73.73 0 0 1 .365.607v.879a.512.512 0 0 1-.517.516H1.2z"/>
        <path id="e" d="M3.389 1.485a.24.24 0 0 0 .243-.244V.454a.24.24 0 0 0-.243-.243H.677a.24.24 0 0 0-.244.243v.787a.24.24 0 0 0 .244.244h.335v10.7H.677a.24.24 0 0 0-.244.241v.79a.24.24 0 0 0 .244.242H3.39a.239.239 0 0 0 .243-.242v-.79a.24.24 0 0 0-.243-.241h-.337v-10.7h.337z"/>
        <path id="g" d="M3.658 1.485a.24.24 0 0 0 .245-.244V.454a.242.242 0 0 0-.245-.243H.948a.24.24 0 0 0-.243.243v.787a.24.24 0 0 0 .243.244h.334v10.7H.948a.24.24 0 0 0-.243.241v.79c0 .152.12.242.243.242h2.71a.24.24 0 0 0 .245-.242v-.79a.241.241 0 0 0-.245-.241h-.335v-10.7h.335z"/>
        <path id="i" d="M3.179 1.485a.24.24 0 0 0 .243-.244V.454A.24.24 0 0 0 3.18.211H.469a.24.24 0 0 0-.244.243v.787a.24.24 0 0 0 .243.244h.335v10.7H.468a.239.239 0 0 0-.243.241v.79c0 .152.121.242.243.242h2.71a.24.24 0 0 0 .244-.242v-.79a.24.24 0 0 0-.243-.241h-.333v-10.7h.333z"/>
        <path id="k" d="M3.524 1.485a.24.24 0 0 0 .243-.244V.454a.24.24 0 0 0-.243-.243H.812A.24.24 0 0 0 .57.454v.787a.24.24 0 0 0 .243.244h.335v10.7H.812a.239.239 0 0 0-.243.241v.79c0 .152.122.242.243.242h2.712a.239.239 0 0 0 .243-.242v-.79a.24.24 0 0 0-.243-.241h-.336v-10.7h.336z"/>
        <path id="m" d="M3.043 1.485a.24.24 0 0 0 .243-.244V.454a.24.24 0 0 0-.243-.243H.333a.24.24 0 0 0-.244.243v.787a.24.24 0 0 0 .243.244h.335v10.7H.332a.239.239 0 0 0-.243.241v.79c0 .152.122.242.243.242h2.71a.238.238 0 0 0 .244-.242v-.79a.24.24 0 0 0-.243-.241h-.334v-10.7h.334z"/>
    </defs>
    <g fill="none" fill-rule="evenodd">
        <path d="M0 0h30v30H0z"/>
        <g transform="translate(.55 24.6)">
            <mask id="b" fill="#fff">
                <use xlink:href="#a"/>
            </mask>
            <path fill="#FFF" d="M-3.374 8.863h35.922V-3.945H-3.374z" mask="url(#b)"/>
        </g>
        <g transform="translate(.55)">
            <mask id="d" fill="#fff">
                <use xlink:href="#c"/>
            </mask>
            <path fill="#FFF" d="M-3.409 14.334h35.925V-3.497H-3.409z" mask="url(#d)"/>
        </g>
        <g transform="translate(3.845 10.66)">
            <mask id="f" fill="#fff">
                <use xlink:href="#e"/>
            </mask>
            <path fill="#FFF" d="M-3.686 17.558H7.751V-3.89H-3.686z" mask="url(#f)"/>
        </g>
        <g transform="translate(21.97 10.66)">
            <mask id="h" fill="#fff">
                <use xlink:href="#g"/>
            </mask>
            <path fill="#FFF" d="M-3.415 17.558H8.022V-3.89H-3.415z" mask="url(#h)"/>
        </g>
        <g transform="translate(17.85 10.66)">
            <mask id="j" fill="#fff">
                <use xlink:href="#i"/>
            </mask>
            <path fill="#FFF" d="M-3.894 17.558H7.542V-3.89H-3.894z" mask="url(#j)"/>
        </g>
        <g transform="translate(12.908 10.66)">
            <mask id="l" fill="#fff">
                <use xlink:href="#k"/>
            </mask>
            <path fill="#FFF" d="M-3.55 17.558H7.886V-3.89H-3.55z" mask="url(#l)"/>
        </g>
        <g transform="translate(8.788 10.66)">
            <mask id="n" fill="#fff">
                <use xlink:href="#m"/>
            </mask>
            <path fill="#FFF" d="M-4.03 17.558H7.405V-3.89H-4.03z" mask="url(#n)"/>
        </g>
    </g>
</svg>
