<svg xmlns="http://www.w3.org/2000/svg" width="30" height="30" viewBox="0 0 30 30">
    <g fill="none" fill-rule="evenodd">
        <path d="M0 0h30v29.605H0z"/>
        <path fill="#FFF" d="M9.166 20.47c-.341-.003-.695.003-1.048.008-.083 1.734-.35 8.834 1.013 9.416 1.093.49 3.192-.873 3.192-.873s.914-.474.851-1.103c0 0-1.154-1.038-1.255-1.476-.098-.437.56-1.24.515-1.647-.044-.406-.837-1.135-.752-1.826.16-1.21.968-1.581 1.365-2.21-.073-.01-.14-.026-.213-.033a30.623 30.623 0 0 0-3.328-.253l-.34-.004M3.675 9.687l-.42.034c-1.927.16-3.248 2.59-2.967 5.464.288 2.85 2.062 5.045 3.986 4.886l.49-.039a.708.708 0 0 1-.106-.101 1.292 1.292 0 0 1-.129-.172c-.084-.13-.17-.29-.25-.48a6.892 6.892 0 0 1-.241-.64 11.821 11.821 0 0 1-.22-.786 20.378 20.378 0 0 1-.362-1.911 25.935 25.935 0 0 1-.205-2.163 18.402 18.402 0 0 1-.003-1.934c.016-.288.04-.56.072-.808.032-.25.07-.473.116-.673a3.23 3.23 0 0 1 .158-.512 1.44 1.44 0 0 1 .08-.165m19.373-8.333a4.19 4.19 0 0 0-.681.484C19.948 3.882 15.57 8.493 4.67 9.364l-.006.024c-.669.055-.98 2.52-.694 5.472.279 2.974 1.041 5.338 1.708 5.283 10.9-.872 16.09 3.056 18.884 4.678.879.509 1.508.316 1.508.316-1.75.18-3.868-5.033-4.524-11.672-.578-5.982.085-11.053 1.5-12.11m1.806-.96c-.031 0-.063.002-.098.005-1.835.16-3.018 4.398-2.922 9.901.077-.006.16-.032.26-.029a3.298 3.298 0 0 1 2.404.73c.158.13.306.277.44.434a3.138 3.138 0 0 1 .735 2.056 3.331 3.331 0 0 1-.08.635 3.266 3.266 0 0 1-.341.87 3.29 3.29 0 0 1-1.337 1.273 3.416 3.416 0 0 1-1.245.364c-.052.01-.124.015-.2.019.906 4.833 2.645 8.238 4.352 8.07 2.114-.19 3.368-5.794 2.787-12.514C29.063 5.906 27.11.872 25.148.427a1.226 1.226 0 0 0-.295-.032"/>
    </g>
</svg>
