<svg xmlns="http://www.w3.org/2000/svg" width="30" height="30" viewBox="0 0 30 30">
    <g fill="none" fill-rule="evenodd">
        <path d="M0 0h30v30H0z"/>
        <g fill="#FFF">
            <path d="M9.552 21.522V17.73L5.12 14.1v2.172c2.966 1.038 4.432 5.251 4.432 5.251"/>
            <path d="M6.65 19.61v.26a.899.899 0 0 1-.893.906h-.733a.899.899 0 0 1-.893-.907v-.26a.9.9 0 0 1 .893-.907h.733c.51.033.894.42.894.908m-3.475 1.912h5.611s-1.212-3.89-3.634-4.44c-2.233-.487-1.977 4.44-1.977 4.44M19.978 21.425s1.244-3.987 4.177-5.024v-2.173l-4.177 3.404v3.793z"/>
            <path d="M25.398 19.512v.26a.898.898 0 0 1-.892.907h-.734a.899.899 0 0 1-.892-.907v-.26c0-.486.383-.906.892-.906h.734c.479 0 .892.42.892.906m-4.623 1.913h5.613s.032-4.765-2.201-4.18c-2.39.613-3.412 4.18-3.412 4.18M26.419 21.91H3.079a.44.44 0 0 0-.446.454v2.627c0 .258.19.453.447.453h23.37a.44.44 0 0 0 .447-.453v-2.627c-.032-.258-.224-.453-.478-.453M4.132 28.588a.9.9 0 0 0 .893.91h1.53a.9.9 0 0 0 .894-.91v-2.625H4.132v2.625zM22.498 28.588a.9.9 0 0 0 .893.91h1.528a.9.9 0 0 0 .895-.91v-2.625h-3.316v2.625zM18.289 18.994a.288.288 0 0 1-.288.291h-6.44a.288.288 0 0 1-.287-.291v-.097c0-.162.128-.292.287-.292H18c.16 0 .288.13.288.292v.097zm0 1.393a.288.288 0 0 1-.288.293h-6.44a.288.288 0 0 1-.287-.293v-.097c0-.161.128-.291.287-.291H18c.16 0 .288.13.288.291v.097zm-8.035 1.039h9.086v-3.73h-9.086v3.73zM3.494 10.566c.6 0 1.084.494 1.084 1.102 0 .609-.485 1.103-1.084 1.103-.6 0-1.084-.494-1.084-1.103 0-.608.484-1.102 1.084-1.102"/>
            <path d="M22.975 12.413h-7.78V5.995h4.05l-3.188 2.983a.353.353 0 0 0-.032.454c.063.065.16.097.223.097a.344.344 0 0 0 .223-.097l3.667-3.437h2.805v6.418h.032zm-8.609 0H6.332V5.995h2.901L12.9 9.432a.284.284 0 0 0 .223.097c.096 0 .159-.032.224-.097.127-.13.096-.325-.032-.454l-3.19-2.983h4.177v6.418h.064zM7.894 2.85c.573 0 1.021.454 1.021 1.037s-.448 1.038-1.02 1.038c-.576 0-1.021-.455-1.021-1.038 0-.55.445-1.037 1.02-1.037zm2.583-1.297s2.167-.615 4.177-.615c2.008 0 4.176.615 4.176.615v3.63h-8.353v-3.63zm10.745 1.297c.574 0 1.02.454 1.02 1.037s-.446 1.038-1.02 1.038c-.574 0-1.02-.455-1.02-1.038 0-.55.446-1.037 1.02-1.037zm5.93 3.242h-.35v-.357c0-.584-.479-1.07-1.052-1.07h-1.595v-.778c0-.744-.446-1.458-1.115-1.75C21.51 1.425 18.448.322 14.654.322c-3.796 0-6.856 1.103-8.386 1.816-.67.292-1.115 1.006-1.115 1.75v.713H3.557c-.573 0-1.052.487-1.052 1.071v.356h-.351a.44.44 0 0 0-.445.453v3.404c0 .26.191.454.445.454h1.563a.44.44 0 0 0 .446-.454V6.449a.44.44 0 0 0-.446-.454h-.35V5.64c0-.098.095-.195.19-.195h1.596v7.748l4.399 3.63h10.395l4.24-3.403V5.54h1.595c.095 0 .191.098.191.195v.357h-.351a.44.44 0 0 0-.446.453V9.95a.44.44 0 0 0 .446.453h1.563a.44.44 0 0 0 .446-.453V6.546c-.033-.226-.224-.453-.478-.453z"/>
            <path d="M25.813 10.663c.6 0 1.084.494 1.084 1.102 0 .61-.484 1.103-1.084 1.103-.6 0-1.084-.494-1.084-1.103 0-.608.485-1.102 1.084-1.102M12.358 2.268h-.127a.44.44 0 0 0-.447.453v1.005c0 .26.191.454.447.454h.127a.44.44 0 0 0 .445-.454V2.721a.46.46 0 0 0-.445-.453M14.622 2.268h-.128a.44.44 0 0 0-.445.453v1.005c0 .26.19.454.445.454h.128a.439.439 0 0 0 .445-.454V2.721a.459.459 0 0 0-.445-.453M16.854 2.268h-.127a.44.44 0 0 0-.446.453v1.005c0 .26.19.454.446.454h.127a.44.44 0 0 0 .445-.454V2.721a.46.46 0 0 0-.445-.453"/>
        </g>
    </g>
</svg>
