<svg xmlns="http://www.w3.org/2000/svg" width="50" height="50" viewBox="0 0 50 50">
    <g fill="none" fill-rule="evenodd">
        <path d="M0 0h50v50H0z"/>
        <path fill="#FFF" d="M23.231 27.908v4.652H18.47v3.486h4.762v4.653h3.572v-4.652h4.764V32.56h-4.764v-4.652h-3.572zm-8.335 16.278h20.243V24.421H14.896v19.765zM24.925.003a.606.606 0 0 0-.503.582v4.322L.274 21.603a.596.596 0 0 0-.25.66c.075.242.327.42.584.413h4.166L4.756 49.42c0 .305.285.581.597.581h39.33c.312 0 .596-.276.596-.58l-.019-26.744h4.167c.486.014.773-.705.409-1.017L25.428.147c-.145-.151-.412-.153-.503-.144z"/>
    </g>
</svg>
