<svg xmlns="http://www.w3.org/2000/svg" width="30" height="30" viewBox="0 0 30 30">
    <path fill="#FFF" fill-rule="evenodd" d="M15 30C6.716 30 0 23.284 0 15 0 6.716 6.716 0 15 0c8.284 0 15 6.716 15 15 0 8.284-6.716 15-15 15zm-2.59-7.5c6.794 0 10.508-5.77 10.508-10.774 0-.164-.003-.327-.01-.49a7.619 7.619 0 0 0 1.842-1.96 7.222 7.222 0 0 1-2.12.596 3.785 3.785 0 0 0 1.623-2.095 7.296 7.296 0 0 1-2.345.92A3.647 3.647 0 0 0 19.212 7.5c-2.039 0-3.693 1.696-3.693 3.786 0 .297.033.586.096.864-3.07-.159-5.79-1.666-7.612-3.957a3.85 3.85 0 0 0-.5 1.903 3.81 3.81 0 0 0 1.643 3.153 3.597 3.597 0 0 1-1.673-.474v.048c0 1.834 1.273 3.365 2.963 3.712a3.612 3.612 0 0 1-1.668.065c.47 1.505 1.833 2.6 3.45 2.63A7.293 7.293 0 0 1 6.75 20.8a10.267 10.267 0 0 0 5.661 1.7v.001z"/>
</svg>
