<svg xmlns="http://www.w3.org/2000/svg" width="30" height="30" viewBox="0 0 30 30">
    <path fill="#FFF" fill-rule="evenodd" d="M15 30C6.716 30 0 23.284 0 15 0 6.716 6.716 0 15 0c8.284 0 15 6.716 15 15 0 8.284-6.716 15-15 15zm11.017-19.282s-.213-1.474-.863-2.122c-.825-.851-1.75-.856-2.173-.905-3.036-.217-7.594-.19-7.594-.19s-4.558-.027-7.593.19c-.424.05-1.348.054-2.173.905-.65.648-.863 2.122-.863 2.122s-.217 1.73-.258 3.461v1.623c.04 1.731.258 3.46.258 3.46s.21 1.475.863 2.123c.825.851 1.91.825 2.393.914 1.705.16 7.18.199 7.371.201.002 0 4.563.007 7.598-.21.424-.05 1.348-.054 2.173-.905.65-.648.863-2.123.863-2.123s.217-1.731.231-3.46v-1.623c-.016-1.731-.233-3.46-.233-3.46zm-12.845 7.278v-6.033l5.831 3.016-5.831 3.017z"/>
</svg>
